<?xml version="1.0" standalone="no"?>
<!DOCTYPE svg PUBLIC "-//W3C//DTD SVG 20010904//EN"
 "http://www.w3.org/TR/2001/REC-SVG-20010904/DTD/svg10.dtd">
<svg version="1.0" xmlns="http://www.w3.org/2000/svg"
 width="600.000000pt" height="600.000000pt" viewBox="0 0 600.000000 600.000000"
 preserveAspectRatio="xMidYMid meet">

<g transform="translate(0.000000,600.000000) scale(0.100000,-0.100000)"
fill="#000000" stroke="none">
<path d="M1363 5685 c-71 -31 -68 -99 7 -174 28 -28 50 -58 50 -67 0 -10 -19
-35 -42 -55 -24 -21 -61 -53 -83 -73 l-40 -35 18 -29 c48 -83 1 -169 -105
-191 -43 -9 -64 -20 -83 -42 -29 -35 -32 -70 -9 -93 21 -21 30 -20 89 9 56 27
110 36 65 10 -14 -8 -54 -24 -90 -35 -120 -36 -204 -107 -235 -199 -22 -65
-19 -104 16 -184 51 -116 76 -198 143 -467 72 -288 117 -413 241 -665 101
-204 215 -386 366 -580 121 -158 204 -240 373 -373 198 -155 403 -267 626
-340 238 -79 415 -109 809 -138 201 -15 258 -16 415 -6 99 7 208 17 241 22 33
6 103 14 156 19 63 6 134 21 207 45 120 39 146 42 206 25 34 -9 44 -8 77 11
21 11 87 30 146 41 151 29 173 43 173 108 0 55 -27 65 -185 71 -118 4 -146 8
-162 23 -19 16 -21 16 -38 -3 -35 -39 -83 -44 -169 -20 -62 17 -92 20 -149 15
-55 -5 -77 -3 -92 8 -19 14 -18 16 10 52 106 132 109 165 17 165 -51 0 -93
-29 -188 -126 l-81 -83 -89 20 c-349 76 -635 213 -883 423 -127 108 -389 432
-465 576 -44 83 -119 300 -145 423 -40 185 -52 293 -86 764 -13 185 -14 217
-1 247 15 36 41 56 75 56 10 0 70 -16 131 -35 117 -37 158 -42 191 -25 18 10
18 13 5 39 -37 70 -137 128 -346 197 -66 22 -143 56 -182 80 -37 24 -85 48
-107 55 -30 9 -43 19 -50 40 -14 41 -61 65 -149 78 -43 6 -97 21 -122 34 -44
22 -45 23 -42 65 6 66 -5 72 -122 72 -145 0 -163 17 -134 124 15 55 2 87 -44
116 -38 23 -89 25 -135 5z m117 -25 c11 -11 20 -29 20 -40 0 -18 -7 -20 -66
-20 l-66 0 5 -27 c5 -26 4 -26 -9 -8 -20 28 -17 50 12 84 31 37 74 41 104 11z
m185 -275 c0 -5 -20 -11 -44 -13 -40 -3 -43 -2 -31 13 14 17 75 17 75 0z m16
-114 c30 -10 66 -24 81 -31 32 -15 46 -40 17 -33 -16 5 -18 0 -16 -33 2 -36 0
-39 -25 -42 -50 -6 -147 110 -123 148 8 13 2 13 66 -9z m-67 -90 c17 -19 16
-20 -66 -24 -45 -2 -96 -8 -113 -11 -27 -6 -28 -6 -10 5 26 16 124 48 151 48
11 1 29 -8 38 -18z m326 -47 c0 -3 -5 -14 -10 -25 -8 -15 -6 -25 11 -49 28
-38 17 -51 -16 -20 l-25 23 0 -29 c0 -36 -25 -74 -48 -74 -9 0 -38 23 -63 51
-48 54 -76 60 -65 13 l7 -25 -32 17 c-48 24 -157 20 -259 -10 -47 -13 -87 -22
-90 -20 -9 10 22 20 167 58 81 21 193 50 248 66 92 26 175 38 175 24z m511
-145 c19 -36 2 -84 -45 -127 -23 -21 -58 -44 -77 -50 -179 -54 -374 -92 -476
-92 -69 0 -112 -14 -253 -80 -69 -32 -140 -62 -158 -65 -31 -6 -33 -5 -28 13
10 29 -3 33 -72 20 -55 -10 -61 -14 -64 -37 -4 -35 -45 -39 -96 -11 -66 37
-88 100 -41 115 31 10 22 25 -16 25 -67 0 -108 -78 -92 -176 3 -19 2 -34 -4
-34 -13 0 -59 98 -59 125 0 36 38 84 87 108 38 19 132 47 158 47 3 0 5 -16 5
-35 0 -29 6 -39 33 -55 48 -30 94 -41 125 -29 l27 10 -34 28 c-32 27 -33 29
-15 40 18 11 18 12 1 24 -45 29 -52 36 -45 42 3 4 55 17 115 30 59 13 186 46
280 75 152 45 346 90 389 90 11 0 12 -4 4 -19 -5 -11 -10 -31 -10 -44 0 -19 6
-26 31 -31 17 -3 35 -3 40 0 18 11 9 53 -17 73 -38 30 -10 36 193 39 95 2 103
0 114 -19z m294 -133 c15 -15 22 -31 19 -40 -5 -13 -15 -9 -50 20 -24 20 -44
38 -44 40 0 15 55 -1 75 -20z m-403 -156 c22 -42 23 -138 4 -227 -10 -51 -10
-63 0 -63 25 0 38 -106 26 -205 -8 -58 -6 -72 6 -81 12 -9 14 -26 9 -88 -4
-60 -3 -76 8 -76 21 0 26 -16 15 -44 -6 -16 -15 -24 -24 -20 -19 7 -36 -25
-36 -68 l0 -33 19 31 c20 32 39 49 46 42 3 -2 11 -38 20 -79 23 -110 84 -330
102 -363 15 -27 14 -29 -10 -50 -32 -28 -42 -56 -19 -56 26 0 70 -40 92 -85
19 -39 19 -39 20 -11 0 29 0 29 51 -24 28 -29 75 -93 105 -141 30 -49 84 -120
120 -159 42 -46 63 -77 60 -87 -16 -40 100 -157 210 -215 38 -20 105 -47 149
-61 68 -22 88 -34 138 -82 73 -71 123 -94 204 -95 50 0 61 -3 57 -14 -8 -20
24 -35 135 -65 52 -15 96 -31 98 -37 5 -15 -69 -38 -104 -32 -77 14 -178 45
-273 84 -169 69 -244 74 -325 24 -44 -27 -52 -22 -24 13 29 38 14 34 -32 -8
-22 -19 -45 -35 -53 -35 -7 0 -31 21 -51 46 -34 42 -41 45 -74 42 -24 -3 -47
2 -68 15 -35 20 -40 31 -21 43 8 5 6 9 -6 14 -16 5 -16 8 3 32 12 14 21 29 21
32 0 3 -19 6 -42 6 -66 1 -196 27 -223 44 -27 18 -58 70 -48 80 9 9 33 7 76
-5 35 -10 37 -12 21 -24 -27 -19 -5 -40 56 -55 45 -11 110 -6 110 7 0 4 -42
47 -92 98 -101 100 -174 143 -432 255 -120 51 -176 84 -176 100 0 12 72 -14
134 -49 69 -39 100 -45 121 -25 42 43 -39 151 -127 169 -14 2 -52 26 -83 52
l-58 47 47 13 c60 18 75 46 51 93 -19 36 -103 130 -116 130 -4 0 3 -24 16 -52
14 -29 25 -61 25 -71 0 -34 -24 -11 -42 38 -19 54 -30 67 -72 89 -35 18 -46
13 -46 -19 0 -32 -17 -40 -30 -14 -9 16 -18 20 -40 16 -39 -8 -62 20 -71 91
-7 54 -11 60 -75 120 -37 34 -65 65 -62 68 3 2 21 -3 41 -12 46 -22 87 -13 87
20 0 24 -74 126 -91 126 -5 0 -25 -16 -45 -35 -55 -56 -66 -49 -62 40 2 41 0
75 -3 75 -3 0 -13 -6 -24 -14 -15 -11 -17 -22 -12 -70 l6 -56 -35 0 c-19 0
-34 -4 -34 -9 0 -5 33 -39 73 -75 51 -47 66 -66 53 -66 -11 0 -29 -9 -41 -20
-32 -30 -51 -16 -75 55 -21 62 -72 125 -102 125 -6 0 -3 9 6 19 26 29 5 58
-83 118 -2 1 13 23 33 48 45 55 75 59 107 14 l21 -30 -22 -16 c-18 -13 -21
-22 -17 -49 7 -39 34 -84 52 -84 9 0 15 23 20 70 6 57 4 76 -12 107 -25 51
-62 76 -118 78 -28 1 -50 7 -56 16 -26 40 -22 96 6 85 10 -3 15 1 15 13 0 37
33 62 88 69 44 6 56 12 70 34 16 27 15 30 -17 92 -28 55 -31 67 -21 86 10 18
18 21 46 17 75 -12 195 51 165 87 -11 13 -6 15 37 9 41 -4 53 -2 70 15 11 11
21 24 23 30 3 8 22 7 62 -4 79 -20 103 -15 58 14 l-35 21 30 11 c37 15 151 39
184 40 14 0 36 7 50 15 38 22 63 14 82 -25z m-712 -144 c0 -3 -4 -8 -10 -11
-5 -3 -10 -1 -10 4 0 6 5 11 10 11 6 0 10 -2 10 -4z m-490 -35 c0 -11 -26 -22
-34 -14 -12 12 -5 23 14 23 11 0 20 -4 20 -9z m386 -95 c38 -29 -23 -76 -80
-62 -38 10 -32 26 12 27 l37 1 -35 14 c-77 32 -78 33 -14 33 38 1 67 -4 80
-13z m-201 -46 c7 -11 -11 -40 -24 -40 -17 0 -43 28 -37 38 9 15 53 16 61 2z
m69 -49 c3 -4 3 -11 0 -14 -8 -8 -34 3 -34 14 0 11 27 12 34 0z m-289 -21 c3
-5 1 -10 -4 -10 -6 0 -11 5 -11 10 0 6 2 10 4 10 3 0 8 -4 11 -10z m235 -15
c0 -8 -4 -15 -9 -15 -13 0 -22 16 -14 24 11 11 23 6 23 -9z m-10 -95 c11 -7
12 -12 4 -20 -9 -9 -20 -8 -43 4 -17 9 -31 19 -31 21 0 9 55 5 70 -5z m-161
-80 c5 -16 6 -30 1 -30 -14 0 -40 30 -40 46 0 26 28 14 39 -16z m145 14 c25
-24 20 -37 -11 -29 -34 8 -47 20 -39 34 10 16 32 14 50 -5z m-24 -54 c8 -5 12
-12 9 -15 -8 -8 -39 5 -39 16 0 11 11 11 30 -1z m-68 -117 c38 -70 66 -165 51
-170 -9 -3 -8 -14 6 -41 10 -20 28 -67 40 -103 12 -36 28 -75 36 -85 23 -31
17 -39 -10 -14 -32 30 -68 91 -95 161 -12 30 -39 90 -60 134 -21 44 -41 90
-45 103 -11 38 13 25 41 -23 14 -25 28 -44 30 -42 2 2 -5 30 -16 62 -23 67
-23 65 -12 65 5 0 20 -21 34 -47z m238 -117 c0 -11 -19 -15 -25 -6 -3 5 1 10
9 10 9 0 16 -2 16 -4z m50 -95 c0 -12 -21 -19 -37 -13 -22 8 -14 22 12 22 14
0 25 -4 25 -9z m200 -16 c0 -8 -4 -15 -10 -15 -5 0 -10 7 -10 15 0 8 5 15 10
15 6 0 10 -7 10 -15z m109 -112 c5 -10 14 -44 21 -76 9 -43 22 -69 56 -109 49
-58 59 -94 22 -83 -13 4 -54 24 -93 44 -38 21 -91 46 -117 56 -37 13 -53 27
-73 61 -14 23 -25 47 -25 53 0 19 47 12 115 -16 51 -21 68 -24 77 -15 12 12
11 18 -17 85 -5 12 -3 17 9 17 8 0 19 -8 25 -17z m-515 -65 c18 -29 48 -87 65
-128 20 -48 58 -108 106 -168 40 -51 77 -102 80 -113 4 -12 26 -40 50 -63 26
-25 49 -60 59 -91 37 -107 45 -118 126 -155 8 -4 28 -29 43 -56 33 -56 53 -73
84 -74 15 0 21 -5 17 -14 -7 -19 82 -116 106 -116 21 0 89 -44 112 -73 69 -86
-85 -43 -172 48 -25 25 -73 69 -107 96 -34 28 -85 79 -114 115 -63 79 -151
223 -143 235 3 5 1 9 -4 9 -19 0 -237 337 -288 445 -54 114 -69 155 -60 155 4
0 21 -24 40 -52z m326 -118 c0 -5 -4 -10 -10 -10 -5 0 -10 5 -10 10 0 6 5 10
10 10 6 0 10 -4 10 -10z m29 -141 c3 -11 -1 -10 -19 2 -13 9 -26 22 -29 30 -3
11 1 10 19 -2 13 -9 26 -22 29 -30z m489 9 c3 -15 -1 -16 -19 -9 -32 11 -38
34 -8 29 13 -1 25 -11 27 -20z m-176 -19 c43 -12 78 -25 78 -29 0 -4 -13 -13
-30 -20 -34 -14 -39 -34 -12 -49 15 -9 15 -10 -5 -11 -33 0 -28 -16 12 -43 19
-13 32 -27 29 -30 -4 -4 10 -25 30 -47 20 -23 34 -45 30 -51 -3 -6 6 -24 22
-40 15 -16 24 -29 20 -29 -13 0 -253 130 -278 150 -28 23 -9 26 32 5 45 -23
36 -3 -15 35 -31 23 -41 36 -33 41 9 6 5 16 -15 37 -32 33 -34 46 -7 39 15 -4
20 0 20 15 0 15 5 19 19 15 14 -3 17 0 14 14 -7 24 -6 24 89 -2z m-222 -49
c17 -13 20 -20 10 -20 -8 0 -26 9 -40 20 -17 13 -20 20 -10 20 8 0 26 -9 40
-20z m-100 -70 c0 -15 -5 -12 -26 11 -19 22 -19 22 4 10 12 -6 22 -16 22 -21z
m725 -200 c3 -5 1 -10 -4 -10 -6 0 -11 5 -11 10 0 6 2 10 4 10 3 0 8 -4 11
-10z m-349 -40 c8 0 14 -5 14 -11 0 -12 -40 -2 -55 14 -7 7 -4 8 8 3 10 -3 25
-6 33 -6z m235 -31 c23 -11 39 -22 37 -24 -7 -8 -83 16 -98 31 -23 22 12 18
61 -7z m-136 -9 c8 -13 -15 -13 -35 0 -12 8 -11 10 7 10 12 0 25 -4 28 -10z
m77 -68 c39 -15 73 -33 75 -39 6 -17 -73 -36 -116 -28 -62 10 -139 46 -156 71
-15 23 -15 25 6 33 30 10 104 -4 191 -37z m167 -11 c31 -16 70 -35 86 -42 l30
-13 -30 -4 c-44 -6 -95 13 -140 53 -51 44 -26 47 54 6z m117 15 c11 -8 37 -17
57 -21 61 -12 58 -29 -4 -22 -48 5 -149 41 -149 52 0 11 77 4 96 -9z m574 -77
c0 -5 -7 -9 -15 -9 -15 0 -20 12 -9 23 8 8 24 -1 24 -14z m-585 -48 l40 -19
-31 -1 c-18 -1 -42 8 -55 19 -31 26 -8 26 46 1z m-328 3 c-3 -3 -12 -4 -19 -1
-8 3 -5 6 6 6 11 1 17 -2 13 -5z m173 -4 c0 -5 -2 -10 -4 -10 -3 0 -8 5 -11
10 -3 6 -1 10 4 10 6 0 11 -4 11 -10z m815 -20 c3 -5 -1 -10 -10 -10 -9 0 -13
5 -10 10 3 6 8 10 10 10 2 0 7 -4 10 -10z m-653 -81 c49 -25 61 -44 22 -35
-44 11 -97 39 -102 55 -5 16 23 9 80 -20z m73 11 c3 -5 -1 -10 -9 -10 -8 0
-18 5 -21 10 -3 6 1 10 9 10 8 0 18 -4 21 -10z m-185 -20 c0 -5 -9 -10 -20
-10 -11 0 -20 5 -20 10 0 6 9 10 20 10 11 0 20 -4 20 -10z m2000 -80 c0 -5 -4
-10 -10 -10 -5 0 -10 5 -10 10 0 6 5 10 10 10 6 0 10 -4 10 -10z m-2035 -29
c-8 -13 -35 -15 -35 -2 0 5 8 11 18 13 21 5 26 2 17 -11z m205 -1 c0 -12 -8
-12 -35 0 -18 8 -17 9 8 9 15 1 27 -3 27 -9z m105 -21 c4 -6 5 -13 1 -16 -8
-8 -56 6 -56 17 0 13 47 13 55 -1z m240 -29 c-3 -5 -17 -10 -31 -10 -13 0 -24
5 -24 10 0 6 14 10 31 10 17 0 28 -4 24 -10z m1310 -10 c-3 -5 -13 -10 -21
-10 -8 0 -12 5 -9 10 3 6 13 10 21 10 8 0 12 -4 9 -10z m-1805 -50 c0 -5 -5
-10 -11 -10 -5 0 -7 5 -4 10 3 6 8 10 11 10 2 0 4 -4 4 -10z m453 3 c-7 -2
-19 -2 -25 0 -7 3 -2 5 12 5 14 0 19 -2 13 -5z m-373 -78 c58 -29 197 -89 310
-133 238 -93 340 -114 580 -119 256 -6 508 -18 516 -25 17 -18 -45 -23 -261
-23 -212 1 -250 4 -479 38 -282 42 -345 57 -535 133 -133 54 -326 152 -316
162 3 3 60 -22 127 -56 68 -34 137 -64 153 -67 17 -4 -19 19 -80 49 -116 59
-194 113 -145 100 14 -3 72 -30 130 -59z m50 40 c0 -8 -6 -15 -14 -15 -17 0
-28 14 -19 24 12 12 33 6 33 -9z m935 -59 c16 -47 -32 -97 -59 -61 -12 16 -17
18 -27 8 -17 -17 -39 -17 -39 0 0 24 83 90 105 83 6 -1 14 -15 20 -30z m-125
-1 c-7 -8 -18 -15 -24 -15 -6 0 -2 7 8 15 25 19 32 19 16 0z m998 -17 c101
-11 111 -14 97 -28 -16 -16 -35 -17 -246 -11 -120 4 -138 9 -112 33 33 29 49
30 261 6z m-770 0 c-2 -6 -18 -22 -36 -36 -29 -22 -32 -23 -39 -7 -4 12 1 24
16 37 26 20 65 25 59 6z m1168 -15 c-10 -10 -19 5 -10 18 6 11 8 11 12 0 2 -7
1 -15 -2 -18z m-196 -3 c0 -5 -4 -10 -10 -10 -5 0 -10 5 -10 10 0 6 5 10 10
10 6 0 10 -4 10 -10z m470 1 c-20 -14 -153 -25 -181 -15 l-24 8 25 7 c38 11
198 11 180 0z m-2290 -21 c0 -5 -6 -10 -14 -10 -8 0 -18 5 -21 10 -3 6 3 10
14 10 12 0 21 -4 21 -10z m923 -22 c-13 -12 -25 -19 -29 -15 -10 10 16 37 34
37 13 0 12 -4 -5 -22z m-493 3 c0 -12 -20 -25 -27 -18 -7 7 6 27 18 27 5 0 9
-4 9 -9z m404 -16 c-18 -27 -44 -34 -44 -10 0 15 26 34 48 35 9 0 8 -7 -4 -25z
m-604 -25 c58 -12 121 -29 140 -38 32 -15 33 -16 12 -20 -40 -6 -184 28 -247
59 -65 31 -62 31 95 -1z m790 15 c-7 -8 -18 -15 -24 -15 -6 0 -2 7 8 15 25 19
32 19 16 0z m-67 -17 c-13 -12 -25 -19 -29 -15 -10 10 16 37 34 37 13 0 12 -4
-5 -22z m124 -3 c-15 -14 -36 -25 -45 -25 -13 1 -11 6 11 25 15 14 36 25 45
25 13 -1 11 -6 -11 -25z m185 -147 c-9 -9 -15 -9 -24 0 -9 9 -7 12 12 12 19 0
21 -3 12 -12z"/>
<path d="M2242 4955 c-26 -19 -48 -55 -32 -55 5 0 10 6 10 14 0 7 14 17 31 22
17 5 31 13 31 19 -1 16 -16 16 -40 0z"/>
<path d="M1754 4879 c-17 -5 -37 -16 -44 -24 -16 -19 -6 -19 47 1 32 12 49 14
65 7 25 -11 98 3 98 18 0 12 -125 10 -166 -2z"/>
<path d="M1675 4830 c-3 -5 -1 -10 4 -10 6 0 11 5 11 10 0 6 -2 10 -4 10 -3 0
-8 -4 -11 -10z"/>
<path d="M1565 4800 c-12 -19 16 -40 51 -40 39 0 43 12 12 34 -26 18 -54 21
-63 6z"/>
<path d="M1495 4790 c-3 -5 -2 -10 4 -10 5 0 13 5 16 10 3 6 2 10 -4 10 -5 0
-13 -4 -16 -10z"/>
<path d="M1496 4744 c-19 -19 -21 -34 -3 -34 6 0 33 -11 59 -25 52 -27 68 -20
43 19 -17 25 -57 56 -74 56 -5 0 -17 -7 -25 -16z"/>
<path d="M2254 4538 c-25 -47 -31 -150 -10 -167 9 -7 22 -11 30 -8 16 6 56
106 56 139 0 31 -14 11 -30 -42 -13 -40 -15 -42 -18 -18 -2 15 1 42 5 60 18
66 -5 91 -33 36z"/>
<path d="M1854 4376 c-4 -11 -1 -21 7 -27 17 -11 26 18 10 34 -7 7 -12 5 -17
-7z"/>
<path d="M1764 4360 c3 -14 6 -35 6 -47 0 -16 13 -31 40 -48 47 -30 70 -33 46
-6 -9 10 -14 25 -11 33 4 11 -6 23 -29 38 -20 12 -41 29 -47 38 -8 14 -9 13
-5 -8z"/>
<path d="M1722 4245 c12 -12 150 -66 155 -61 7 7 -88 53 -127 61 -19 4 -32 4
-28 0z"/>
<path d="M1670 4221 c0 -24 59 -70 116 -90 76 -26 82 -26 58 0 -44 50 -174
117 -174 90z"/>
<path d="M2210 4211 c0 -6 4 -13 10 -16 6 -3 7 1 4 9 -7 18 -14 21 -14 7z"/>
<path d="M1650 4135 c28 -28 53 -45 68 -45 34 0 23 19 -32 57 -71 48 -89 42
-36 -12z"/>
<path d="M1612 4104 c23 -40 21 -41 -26 -13 -51 30 -44 12 18 -50 48 -47 57
-53 71 -41 10 9 15 25 13 49 -3 30 -10 39 -50 62 l-46 27 20 -34z"/>
<path d="M1769 4033 c12 -24 31 -39 31 -25 0 5 -10 17 -21 28 -22 19 -22 19
-10 -3z"/>
<path d="M1720 4029 c0 -5 5 -7 10 -4 6 3 10 8 10 11 0 2 -4 4 -10 4 -5 0 -10
-5 -10 -11z"/>
<path d="M2308 4005 c-3 -14 -1 -28 3 -31 5 -3 9 9 9 25 0 38 -6 40 -12 6z"/>
<path d="M2082 4000 c0 -14 2 -19 5 -12 2 6 2 18 0 25 -3 6 -5 1 -5 -13z"/>
<path d="M2164 3985 c-11 -61 0 -127 31 -173 15 -23 33 -41 38 -39 19 6 31 59
18 79 -6 10 -11 36 -11 59 0 32 -4 42 -19 46 -12 3 -21 15 -23 31 -5 40 -26
38 -34 -3z"/>
<path d="M2347 4013 c-4 -3 -7 -22 -6 -42 l1 -36 9 39 c9 39 8 52 -4 39z"/>
<path d="M1840 3978 c-1 -34 52 -179 74 -205 23 -26 25 -27 43 -11 14 13 22
14 37 6 14 -8 17 -7 14 3 -3 8 1 22 10 31 13 16 11 22 -26 71 -50 64 -90 103
-98 94 -4 -3 4 -31 16 -62 34 -84 17 -77 -29 11 -22 44 -40 71 -41 62z"/>
<path d="M1730 3923 c0 -13 5 -23 10 -23 13 0 13 11 0 30 -8 12 -10 11 -10 -7z"/>
<path d="M1816 3891 c-8 -12 3 -41 15 -41 12 0 12 37 0 45 -5 3 -12 1 -15 -4z"/>
<path d="M1985 3530 c3 -5 8 -10 11 -10 2 0 4 5 4 10 0 6 -5 10 -11 10 -5 0
-7 -4 -4 -10z"/>
<path d="M2456 3481 c-8 -13 10 -78 25 -86 5 -4 9 9 9 27 0 39 -23 78 -34 59z"/>
<path d="M2530 3250 c0 -19 3 -21 12 -12 9 9 9 15 0 24 -9 9 -12 7 -12 -12z"/>
<path d="M2650 3108 c0 -22 33 -55 38 -38 3 7 -5 22 -17 33 -18 18 -21 19 -21
5z"/>
<path d="M2760 2949 c0 -21 31 -77 56 -100 22 -21 24 -21 24 -3 -1 21 -15 48
-46 87 -23 29 -34 34 -34 16z"/>
<path d="M2085 1647 c-44 -24 -96 -49 -115 -57 -48 -20 -46 -48 4 -74 22 -12
49 -34 60 -49 21 -28 21 -40 24 -520 2 -346 -1 -500 -9 -519 -7 -17 -25 -32
-50 -42 -31 -12 -39 -21 -39 -40 l0 -25 206 3 c177 2 207 5 215 18 12 22 -14
48 -47 48 -38 0 -91 26 -106 52 -10 18 -13 145 -15 622 -1 329 -4 605 -7 612
-9 22 -36 16 -121 -29z"/>
<path d="M4300 1654 c-30 -19 -75 -42 -100 -51 -89 -33 -94 -59 -20 -92 84
-38 80 -13 80 -570 0 -336 -3 -498 -11 -514 -6 -14 -30 -33 -53 -43 -32 -15
-41 -24 -41 -44 0 -28 -26 -26 271 -22 l155 2 -3 28 c-3 24 -8 28 -61 38 -81
17 -93 30 -101 118 -4 41 -2 84 3 99 10 25 75 77 97 77 7 0 24 -20 38 -44 33
-57 137 -196 200 -270 l51 -59 128 7 c70 4 134 9 143 13 9 3 14 15 12 32 -3
23 -9 27 -56 33 -29 5 -67 15 -85 24 -62 32 -223 219 -293 341 l-18 33 29 31
c80 83 221 159 298 159 41 0 70 20 65 46 -3 18 -16 20 -173 26 -94 4 -189 9
-212 11 -48 5 -69 -10 -59 -41 5 -13 19 -22 45 -26 50 -8 69 -29 50 -56 -25
-35 -233 -201 -248 -198 -14 3 -17 59 -21 473 l-5 470 -25 2 c-14 1 -49 -13
-80 -33z"/>
<path d="M894 1581 c-15 -15 1 -43 34 -60 45 -23 77 -56 91 -94 15 -39 15
-908 0 -961 -13 -47 -50 -86 -82 -86 -28 0 -50 -21 -42 -41 4 -11 51 -14 247
-14 232 0 243 1 246 19 5 24 -23 46 -57 46 -39 0 -98 19 -116 36 -13 13 -15
53 -15 256 l0 241 126 -5 c117 -5 127 -7 150 -29 13 -14 32 -47 42 -74 14 -41
23 -51 43 -53 l26 -3 7 163 c3 90 7 177 9 193 2 27 -1 30 -28 30 -28 0 -31 -4
-42 -50 -19 -75 -30 -81 -183 -88 -72 -4 -136 -5 -141 -1 -5 3 -9 108 -9 240
l0 234 28 11 c18 7 78 9 177 4 188 -8 207 -16 253 -102 26 -50 38 -63 57 -63
25 0 24 -4 40 185 l7 70 -432 0 c-237 0 -434 -2 -436 -4z"/>
<path d="M2798 1065 c-66 -18 -167 -67 -205 -99 -41 -35 -46 -86 -11 -110 48
-34 114 -6 157 65 43 68 68 83 121 69 52 -14 76 -38 91 -92 12 -48 8 -133 -9
-150 -6 -6 -60 -23 -121 -39 -124 -31 -189 -57 -239 -95 -71 -55 -90 -129 -53
-210 49 -109 187 -130 349 -54 35 17 70 30 76 30 7 0 27 -16 46 -35 40 -41 73
-45 140 -14 69 31 112 67 108 92 -3 20 -8 22 -64 19 -42 -3 -64 1 -71 10 -8 9
-13 99 -15 270 -3 240 -4 258 -24 285 -48 66 -161 90 -276 58z m143 -405 c17
-9 19 -22 19 -99 0 -109 -10 -124 -95 -146 -114 -29 -185 6 -185 91 0 73 64
123 195 153 22 5 41 9 43 10 2 1 12 -4 23 -9z"/>
<path d="M3585 1063 c-108 -39 -155 -99 -155 -199 0 -109 39 -150 225 -239
135 -64 165 -90 165 -142 0 -55 -21 -79 -79 -92 -104 -22 -213 18 -269 99 -18
26 -35 39 -49 40 -22 0 -23 -3 -23 -89 0 -54 4 -93 11 -97 27 -16 122 -35 211
-41 128 -8 208 12 272 68 54 48 70 90 64 175 -6 98 -31 123 -217 214 -84 42
-160 84 -167 95 -21 28 -18 89 5 109 31 28 97 39 156 25 41 -10 61 -23 107
-72 50 -51 62 -58 84 -53 21 6 25 11 20 29 -3 12 -11 51 -18 86 -11 59 -14 65
-47 79 -58 24 -235 27 -296 5z"/>
</g>
</svg>
